<mxfile host="app.diagrams.net" modified="2024-05-06T15:53:23.023Z" agent="Mozilla/5.0 (Macintosh; Intel Mac OS X 10_15_7) AppleWebKit/537.36 (KHTML, like Gecko) Chrome/124.0.0.0 Safari/537.36" version="24.3.1" etag="Flv_Nq8csDObbWLdGYqZ" type="github">
  <diagram name="Страница — 1" id="aC0S0fwAIt-Xg2B6zTGO">
    <mxGraphModel>
      <root>
        <mxCell id="0" />
        <mxCell id="1" parent="0" />
      </root>
    </mxGraphModel>
  </diagram>
</mxfile>
